<?xml version="1.0" encoding="UTF-8"?>
<svg id="Capa_2" data-name="Capa 2" xmlns="http://www.w3.org/2000/svg" viewBox="0 0 44.36 109.65">
  <defs>
    <style>
      .cls-1 {
        fill: #f1f1f2;
      }
    </style>
  </defs>
  <g id="Capa_1-2" data-name="Capa 1">
    <path class="cls-1" d="M22.18,0C9.95,0,0,9.67,0,21.56v66.53c0,11.89,9.95,21.56,22.18,21.56s22.18-9.67,22.18-21.56V21.56C44.36,9.67,34.41,0,22.18,0ZM2.02,88.09V30.53c11.47,2.31,18.64,9.43,18.64,22.71v11.32c0,3.73-1.72,21.05,4.35,26.62,6.75,6.19,13.76,3.09,16.86,1.13-2,8.76-10.06,15.33-19.69,15.33-11.12,0-20.16-8.77-20.16-19.56ZM42.35,28.17c-6.96,1-15.35,4.43-18.5,12.97-.32.93-.96.78-1.44-.31-4.45-11.98-10.44-19.51-20.18-22.09C3.64,9.29,12.05,2,22.18,2c11.12,0,20.16,8.77,20.16,19.56v6.61ZM39.91,68.96c-5.79,5.08-15.05,1.14-15.1-6.44,0-.09,0-.18,0-.28,0-12.55,4.57-19.32,17.54-21.83v26.41l-2.44,2.14Z"/>
  </g>
</svg>