<?xml version="1.0" encoding="UTF-8"?>
<svg id="Capa_2" data-name="Capa 2" xmlns="http://www.w3.org/2000/svg" viewBox="0 0 444.37 141.79">
  <defs>
    <style>
      .cls-1 {
        fill: #f1f1f2;
      }
    </style>
  </defs>
  <g id="Capa_1-2" data-name="Capa 1">
    <g>
      <path class="cls-1" d="M11.65,96.15L22.41,11.71c.88-6.04-2.82-7.08-9.35-8.29l.35-3.11h43.42c24.18,0,35.65,9.33,35.65,24.69s-9.18,24.69-26.3,30.74c-1.23.52-1.41,1.21-.35,1.55,9.88,3.45,13.77,12.78,14.82,20.38,3.35,20.55,5.47,26.94,11.65,26.94l-.18,2.94h-3.35c-15.18,0-19.41-10.02-21.53-26.94-2.29-16.58-10.06-22.28-25.41-22.28-10.59,0-13.41,2.94-14.12,9.33l-3.53,28.49c-.53,6.04,2.29,6.91,10.59,8.29v3.11H0l.35-3.11c6.88-1.38,10.41-2.25,11.29-8.29ZM39.17,57.22h12.88c18.88,0,26.83-15.47,26.83-33.6,0-11.22-5.82-19-21.53-19h-11.47c-7.59,0-10.59.86-11.12,7.25l-4.07,36.19c-.53,6.56,1.24,9.15,8.47,9.15Z"/>
      <path class="cls-1" d="M98.48,73.01c0-20.11,13.06-45.89,40.06-45.89,15.71,0,23.47,8.42,23.47,19.59s-8.29,20.45-35.3,24.92l-9.88,1.55c-4.41.69-5.12,4.3-3.18,9.97,3.88,9.62,11.47,16.5,22.77,16.5,6.88,0,15.18-2.58,20.3-8.59l2.29,2.41c-4.76,6.02-13.77,14.09-28.24,14.09-18.88,0-32.3-13.92-32.3-34.54ZM117.25,71.89l6.53-1.03c22.77-3.78,26.41-15.21,26.41-23.63,0-9.62-4.41-16.67-14.29-16.67-13.77,0-25.88,16.07-25.88,35.66,0,5.33,3.35,6.36,7.24,5.67Z"/>
      <path class="cls-1" d="M165.33,125.79c0-5.74,3.53-7.65,6.53-7.65,3.18,0,5.65,1.91,6.18,6.44,1.06,8,1.24,13.39,12.88,13.39,18.88,0,27.71-13.74,30-31.65l.53-4c.35-3.48-.53-4.17-2.82-2.09-6,5.39-12.71,7.83-20.12,7.83-16.24,0-27.71-11.65-27.71-31.65,0-26.09,18.18-49.39,44.12-49.39,9.53,0,13.41,3.13,18.18,3.13,3.53,0,4.41-1.56,6.35-1.56,1.59,0,2.47.87,2.29,2.61l-9.88,74.27c-3,22.61-18.53,36.35-40.94,36.35-14.65,0-25.59-5.74-25.59-16ZM205.73,104.84c9.18,0,16.78-8.79,20.13-34.71l1.94-15.48c1.94-15.65,1.43-25.71-11.1-25.71-21,0-33.55,25.19-33.55,43.63,0,15.65,8.81,32.27,22.57,32.27Z"/>
      <path class="cls-1" d="M255.64,96.61l8.29-56.94c.88-6.08-4.41-7.29-9.88-4.69l.71-2.95c3.35-3.47,8.3-5.03,11.65-5.03,5.12,0,10.06,2.95,9,10.94l-8.3,55.9c-1.06,6.94,4.59,8.85,10.41,5.73l-.53,2.95c-4.06,3.47-8.12,5.03-12,5.03-5.29,0-10.41-3.12-9.35-10.94ZM271.65,0c3.9,0,7.01,2.96,7.01,7.01s-3.12,7.01-7.01,7.01-7.01-2.96-7.01-7.01,3.12-7.01,7.01-7.01Z"/>
      <path class="cls-1" d="M344.53,96.72l5.29-39.53c2.29-16.67-5.56-22.17-14.92-22.17-15.18,0-25.77,14.61-28.41,36.09l-2.55,35.4h-10.94l8.47-65.65c.88-6.53-4.59-7.73-10.06-5.16l.71-2.92c3.18-3.44,7.24-4.98,11.12-4.98,5.29,0,9.53,2.41,9.53,12.89,0,12.37,7.06-13.58,30-13.58,12.53,0,21,7.73,18.35,26.47l-5.29,40.04c-1.06,7.39,4.59,9.11,10.41,6.02l-.53,2.92c-3.71,3.44-7.77,4.98-11.65,4.98-5.47,0-10.59-2.92-9.53-10.83Z"/>
      <path class="cls-1" d="M371.66,75.79c0-26.06,17.82-48.67,43.59-48.67,9.71,0,13.59,3.11,18.35,3.11,3.53,0,4.41-1.55,6.35-1.55,1.59,0,2.47.86,2.29,2.59l-8.12,62.65c-.88,6.9,4.41,8.8,10.24,5.7l-.53,2.93c-4.06,3.45-7.24,5.01-10.94,5.01-6.18,0-8.82-3.97-9.53-7.42-.71-2.93-2.12-2.24-4.24-.35-6,5.35-12.71,7.77-20.12,7.77-16.24,0-27.35-11.22-27.35-31.76ZM404.84,103.43c9.53,0,18.18-5.87,21.53-31.59l1.59-14.69c2.29-18.12.84-27.88-11.69-27.88-21,0-32.25,24.6-32.25,43.07,0,16.22,7.06,31.09,20.83,31.09Z"/>
      <g>
        <path class="cls-1" d="M238.83,134.14v-12.95h1.94v12.95h-1.94Z"/>
        <path class="cls-1" d="M255.51,121.18h1.94v12.95h-1.82l-5.66-9.44v9.44h-1.94v-12.95h1.88l5.6,9.36v-9.36Z"/>
        <path class="cls-1" d="M272.98,121.18v1.77h-3.85v11.19h-1.94v-11.19h-3.85v-1.77h9.64Z"/>
        <path class="cls-1" d="M280.79,132.37h6.02v1.77h-7.93v-12.95h7.76v1.77h-5.85v3.93h5.1v1.79h-5.1v3.7Z"/>
        <path class="cls-1" d="M300,134.14l-3.33-4.83h-1.47v4.83h-1.94v-12.95h4.94c2.84,0,3.99,2.05,3.99,4.1,0,1.86-1.13,3.82-3.29,4.02l3.4,4.83h-2.31ZM295.21,122.95v4.66h2.54c1.79,0,2.52-.96,2.52-2.33s-.81-2.33-2.07-2.33h-2.99Z"/>
        <path class="cls-1" d="M308.71,134.14v-12.95h1.94v12.95h-1.94Z"/>
        <path class="cls-1" d="M317.04,127.69c0-3.68,2.86-6.73,6.54-6.73s6.58,3.05,6.58,6.73-2.88,6.67-6.58,6.67-6.54-3.01-6.54-6.67ZM328.23,127.69c0-2.67-1.99-4.93-4.64-4.93s-4.61,2.26-4.61,4.93,1.97,4.87,4.61,4.87,4.64-2.22,4.64-4.87Z"/>
        <path class="cls-1" d="M343.29,134.14l-3.33-4.83h-1.47v4.83h-1.94v-12.95h4.94c2.84,0,3.99,2.05,3.99,4.1,0,1.86-1.13,3.82-3.29,4.02l3.4,4.83h-2.31ZM338.49,122.95v4.66h2.54c1.79,0,2.52-.96,2.52-2.33s-.81-2.33-2.07-2.33h-2.99Z"/>
        <path class="cls-1" d="M365.48,121.18c3.71,0,5.87,2.82,5.87,6.5s-2.16,6.45-5.87,6.45h-5.04v-12.95h5.04ZM365.48,132.37c2.6,0,3.93-2.05,3.93-4.68s-1.33-4.74-3.93-4.74h-3.1v9.42h3.1Z"/>
        <path class="cls-1" d="M379.71,132.37h6.02v1.77h-7.93v-12.95h7.76v1.77h-5.85v3.93h5.1v1.79h-5.1v3.7Z"/>
        <path class="cls-1" d="M391.39,130.41h1.92c.04,1.11,1.07,2.18,2.69,2.18s2.44-.98,2.44-2.05c0-1.15-1.03-1.69-2.09-1.97l-1.65-.41c-2.76-.7-3.21-2.33-3.21-3.4,0-2.27,2.01-3.8,4.3-3.8s4.16,1.47,4.16,3.84h-1.92c0-1.22-.96-2.07-2.29-2.07-1.22,0-2.31.81-2.31,1.99,0,.41.13,1.26,1.77,1.69l1.64.45c2.18.58,3.55,1.69,3.55,3.59,0,2.16-1.77,3.91-4.38,3.91-2.76,0-4.61-1.86-4.61-3.95Z"/>
        <path class="cls-1" d="M406.72,134.14v-12.95h1.94v12.95h-1.94Z"/>
        <path class="cls-1" d="M415.05,127.69c0-3.68,2.88-6.73,6.56-6.73,1.77,0,3.35.7,4.48,1.79l-1.35,1.24c-.81-.75-1.92-1.24-3.12-1.24-2.61,0-4.62,2.27-4.62,4.94s2.01,4.89,4.64,4.89c2.18,0,4.02-1.45,4.02-3.35h-3.72v-1.65h5.85c0,4.61-2.46,6.79-6.13,6.79s-6.6-3.01-6.6-6.67Z"/>
        <path class="cls-1" d="M441.39,121.18h1.94v12.95h-1.82l-5.66-9.44v9.44h-1.94v-12.95h1.88l5.6,9.36v-9.36Z"/>
      </g>
    </g>
  </g>
</svg>